<?xml version="1.0" standalone="no"?>
<!DOCTYPE svg PUBLIC "-//W3C//DTD SVG 20010904//EN"
 "http://www.w3.org/TR/2001/REC-SVG-20010904/DTD/svg10.dtd">
<svg version="1.0" xmlns="http://www.w3.org/2000/svg"
 width="959.000000pt" height="959.000000pt" viewBox="0 0 959.000000 959.000000"
 preserveAspectRatio="xMidYMid meet">
<metadata>
Created by potrace 1.14, written by Peter Selinger 2001-2017
</metadata>
<g transform="translate(0.000000,959.000000) scale(0.100000,-0.100000)"
fill="#000000" stroke="none">
<path d="M0 4795 l0 -4795 4795 0 4795 0 0 4795 0 4795 -4795 0 -4795 0 0
-4795z m5045 3021 c401 -43 600 -71 815 -116 130 -28 393 -123 505 -183 22
-11 69 -36 105 -55 186 -97 437 -276 649 -461 145 -127 478 -477 549 -576 4
-6 25 -32 47 -60 46 -57 63 -81 159 -227 144 -217 221 -349 318 -548 83 -169
101 -212 160 -385 17 -49 37 -104 44 -122 8 -17 14 -37 14 -45 0 -8 6 -34 14
-59 78 -246 117 -520 123 -851 3 -178 1 -245 -11 -311 -9 -46 -16 -102 -16
-124 0 -44 -32 -224 -55 -313 -32 -124 -59 -219 -81 -285 -29 -88 -123 -321
-162 -400 -16 -33 -31 -64 -33 -70 -9 -24 -105 -195 -137 -245 -238 -376 -480
-658 -782 -910 -29 -25 -63 -52 -75 -60 -207 -141 -283 -188 -378 -235 -62
-30 -118 -55 -123 -55 -5 0 -44 -22 -87 -50 -94 -61 -192 -113 -272 -147 -33
-14 -73 -31 -90 -39 -41 -18 -251 -81 -300 -89 -22 -4 -53 -11 -70 -16 -41
-12 -217 -38 -345 -50 -145 -15 -595 -5 -745 15 -258 35 -444 64 -455 71 -5 3
-48 9 -97 15 -180 19 -474 68 -628 104 -109 26 -189 46 -235 60 -25 7 -81 24
-125 36 -44 12 -94 28 -110 35 -17 7 -46 16 -65 20 -19 4 -39 11 -45 14 -5 4
-39 18 -75 30 -268 94 -702 327 -890 478 -83 66 -238 205 -291 260 -79 81
-219 256 -219 272 0 6 -4 11 -9 11 -12 0 -122 189 -169 291 -81 174 -144 368
-172 529 -45 266 -45 260 -45 725 0 301 4 473 12 520 7 39 17 122 23 185 6 63
17 149 25 190 7 41 21 120 31 175 9 55 30 152 46 215 16 63 34 133 39 155 5
22 15 65 23 95 8 30 24 98 36 150 24 108 44 187 71 280 10 36 30 103 43 150
34 116 91 274 141 385 7 17 16 41 20 55 19 64 197 401 235 445 10 11 29 41 44
67 50 87 295 329 450 444 301 223 696 412 1036 495 289 70 611 118 900 133
142 8 573 -3 715 -18z"/>
<path d="M4225 7549 c-82 -5 -163 -13 -180 -18 -16 -5 -59 -12 -95 -16 -104
-10 -340 -58 -455 -93 -27 -8 -66 -18 -85 -23 -31 -7 -215 -70 -280 -97 -74
-29 -247 -116 -334 -166 -147 -85 -273 -183 -405 -314 -140 -139 -226 -250
-307 -392 -79 -141 -91 -166 -149 -320 -42 -112 -80 -260 -95 -370 -12 -86
-17 -106 -71 -250 -34 -95 -86 -260 -123 -395 -8 -27 -24 -84 -35 -125 -22
-74 -29 -108 -56 -246 -7 -39 -18 -89 -23 -110 -6 -22 -13 -64 -16 -94 -4 -30
-13 -86 -21 -125 -26 -122 -54 -364 -66 -560 -22 -343 18 -731 102 -1001 10
-33 19 -66 19 -73 0 -7 6 -27 14 -44 7 -18 35 -84 61 -147 133 -325 347 -613
615 -827 105 -83 121 -94 245 -156 260 -131 464 -210 775 -303 30 -9 82 -25
115 -35 115 -35 267 -72 385 -94 41 -8 127 -24 190 -36 331 -62 841 -104 1170
-97 364 9 641 40 900 103 36 9 83 19 105 24 22 4 87 23 145 40 324 101 632
261 894 465 69 54 274 259 331 331 115 145 250 333 265 368 6 12 28 51 51 87
47 74 120 214 163 310 16 36 37 84 48 107 10 22 23 54 28 70 5 15 20 60 35 98
57 156 101 295 110 354 4 24 14 59 21 77 8 18 14 49 14 68 0 19 5 47 11 63 5
15 19 92 30 171 16 115 18 154 9 200 -6 31 -15 140 -20 242 -15 268 -37 516
-53 585 -18 76 -35 116 -81 185 -20 30 -36 58 -36 63 0 4 -14 38 -31 75 -32
68 -45 103 -93 252 -16 47 -34 99 -41 115 -7 17 -24 67 -39 113 -15 46 -31 91
-36 100 -5 9 -23 55 -40 102 -18 47 -35 90 -40 95 -4 6 -11 21 -15 35 -4 14
-23 49 -41 78 -19 29 -34 55 -34 58 0 4 -50 81 -116 178 -37 54 -246 289 -309
347 -180 168 -260 231 -447 352 -258 168 -677 350 -1038 449 -30 9 -90 25
-132 37 -43 11 -87 21 -97 21 -11 0 -35 6 -53 14 -44 18 -198 52 -333 72 -201
30 -617 40 -930 23z m1926 -968 c16 -16 29 -40 29 -52 0 -31 -40 -96 -129
-211 -84 -109 -131 -189 -131 -226 0 -30 38 -66 164 -157 54 -38 108 -79 120
-90 12 -11 51 -44 86 -74 36 -29 71 -63 79 -76 38 -61 -48 -92 -179 -64 -45
10 -56 17 -109 83 -78 95 -183 192 -215 198 -59 11 -80 -19 -222 -319 -31 -64
-67 -96 -128 -113 -35 -10 -53 -10 -71 -2 -38 18 -35 85 9 165 56 103 78 140
121 197 73 97 115 168 115 191 0 24 -80 105 -154 157 -43 29 -64 48 -143 126
-29 28 -53 56 -53 62 0 6 -7 17 -15 24 -11 9 -15 26 -13 52 4 54 37 74 95 59
33 -9 68 -37 168 -136 130 -127 162 -147 214 -130 20 6 61 69 127 194 16 30
54 81 84 113 67 70 103 77 151 29z m-2644 -363 c47 -52 36 -101 -43 -184 -144
-150 -300 -328 -311 -352 -9 -22 -8 -32 5 -54 35 -60 223 -225 362 -318 75
-50 80 -55 80 -93 0 -67 -66 -110 -134 -87 -38 12 -131 106 -210 210 -27 36
-54 70 -60 75 -6 6 -24 29 -40 53 -50 73 -81 54 -164 -101 -52 -98 -110 -187
-137 -209 -25 -22 -93 -23 -123 -2 -14 10 -22 25 -22 45 0 32 63 159 111 224
154 207 165 228 155 269 -3 13 -45 75 -94 138 -118 153 -132 177 -132 229 0
51 7 64 38 74 43 13 104 -47 157 -155 28 -58 99 -160 111 -160 11 0 33 24 159
169 22 26 71 86 109 134 93 118 140 142 183 95z m3630 -1142 c21 -8 81 -27
133 -42 52 -14 100 -30 105 -34 6 -4 24 -11 42 -14 17 -4 37 -14 44 -22 6 -8
16 -14 21 -14 6 0 28 -14 49 -31 33 -26 39 -36 39 -69 0 -47 -12 -53 -104 -48
-39 1 -69 -2 -78 -10 -10 -8 -17 -40 -22 -89 -3 -42 -13 -101 -22 -132 -43
-156 -59 -201 -90 -263 -39 -77 -62 -192 -70 -348 -3 -58 -12 -145 -19 -195
-8 -49 -19 -133 -24 -185 -6 -52 -13 -105 -17 -117 -8 -29 27 -63 65 -63 37 0
180 -44 234 -73 86 -45 177 -169 194 -262 2 -16 12 -60 20 -96 18 -80 14 -372
-7 -429 -36 -99 -76 -150 -165 -211 -62 -42 -114 -59 -186 -59 -124 0 -218 64
-384 266 -129 155 -182 204 -226 204 -31 0 -37 -7 -128 -142 -81 -120 -201
-262 -258 -305 -21 -15 -58 -49 -84 -74 -40 -41 -53 -48 -110 -58 -36 -6 -158
-11 -270 -11 -196 0 -314 -12 -364 -37 -297 -148 -341 -158 -670 -155 -296 2
-403 18 -536 79 -225 101 -330 186 -674 544 -66 69 -136 134 -155 145 -19 12
-71 28 -115 37 -44 9 -125 26 -180 37 -55 12 -125 27 -156 35 -30 8 -64 15
-75 15 -24 0 -141 34 -199 58 -51 20 -146 117 -221 223 -52 74 -160 273 -177
324 -3 11 -15 45 -27 75 -25 67 -85 267 -100 335 -15 65 -25 75 -74 75 -31 0
-60 -11 -116 -45 -80 -48 -113 -55 -141 -29 -23 21 -11 56 39 107 107 111 285
195 479 227 116 19 159 16 177 -12 12 -20 -13 -53 -59 -74 -41 -19 -135 -72
-152 -85 -23 -19 -18 -45 45 -244 14 -44 29 -84 33 -90 3 -5 10 -26 14 -45 4
-19 13 -44 20 -55 7 -11 16 -35 20 -53 7 -36 94 -209 138 -279 31 -49 141
-169 171 -186 14 -8 104 -14 256 -18 305 -9 416 -31 528 -108 66 -45 95 -77
155 -172 87 -139 227 -282 404 -415 57 -42 180 -112 263 -149 195 -85 312
-116 479 -123 122 -5 255 9 267 29 3 5 13 9 23 9 26 0 157 93 238 171 40 37
85 74 100 82 63 33 142 40 363 33 l215 -7 60 31 c33 18 73 44 89 59 44 40 144
168 172 220 13 25 28 53 33 61 5 8 26 44 47 80 68 119 223 344 289 420 104
120 183 242 238 370 35 81 50 186 57 410 10 279 27 362 107 540 51 112 77 208
67 249 -8 33 -14 37 -83 63 -90 33 -131 69 -131 114 0 61 55 81 137 50z"/>
<path d="M6981 3255 c-30 -39 -36 -80 -15 -107 10 -13 76 -61 148 -108 171
-112 169 -110 162 -184 -3 -33 -13 -70 -20 -82 -17 -25 -77 -40 -104 -25 -10
6 -51 50 -91 100 -39 50 -86 100 -104 113 -72 52 -149 72 -175 46 -12 -12 -17
-114 -6 -142 3 -9 34 -35 68 -60 33 -24 95 -80 136 -126 41 -45 102 -103 135
-130 162 -129 219 -126 314 18 84 127 90 274 19 432 -26 60 -37 72 -122 135
-184 137 -299 177 -345 120z"/>
</g>
</svg>
